# xmcd
#
# Track frame offsets: 
#        150
#        11951
#        15993
#        29761
#        35790
#        48904
#        50049
#        67256
#        83007
#        90644
#        103739
#        115803
#        116982
#        128257
#        132189
#        146195
#        156887
#        171662
#        177515
#        195537
#        198653
#        213397
#        215505
#        229836
#        246973
#        261071
#
# Disc length: 3680 seconds
#
# Revision: 0
# Processed by: cddbd v1.5.2PL0 Copyright (c) Steve Scherf et al.
# Submitted via: ExactAudioCopyFreeDBPlugin 1.0
#
DISCID=8e0e5e1a
DTITLE=Laura Osnes - Dream A Little Dream • Live At The Cafe Carlyle (
DTITLE=2012)
DYEAR=2012
DGENRE=Easy Listening
TTITLE0=How 'Bout A Dance?
TTITLE1=Nervous
TTITLE2=I Have Confidence
TTITLE3=Dream Role
TTITLE4=Till There Was You
TTITLE5=My Story
TTITLE6=Born To Entertain • Don't Rain On My Parade
TTITLE7=Fever
TTITLE8=Understudies
TTITLE9=A Whole New World
TTITLE10=All The Things You Are
TTITLE11=Surrounded By Men
TTITLE12=Femininity
TTITLE13=Pipe Dream
TTITLE14=Baby It's Cold Outside
TTITLE15=I Think It's Going To Rain Today
TTITLE16=Sunrise
TTITLE17=Words With Friends
TTITLE18=Anything You Can Do
TTITLE19=Frank In The House
TTITLE20=Must Be My Lucky Day
TTITLE21=Best Seat In The House
TTITLE22=When She Loved Me
TTITLE23=Blue Medley
TTITLE24=Blue Medley
TTITLE25=Dream A Little Dream Of Me
EXTD=
EXTT0=
EXTT1=
EXTT2=
EXTT3=
EXTT4=
EXTT5=
EXTT6=
EXTT7=
EXTT8=
EXTT9=
EXTT10=
EXTT11=
EXTT12=
EXTT13=
EXTT14=
EXTT15=
EXTT16=
EXTT17=
EXTT18=
EXTT19=
EXTT20=
EXTT21=
EXTT22=
EXTT23=
EXTT24=
EXTT25=
PLAYORDER=
